<svg width="201" height="82" viewBox="0 0 201 82" fill="none" xmlns="http://www.w3.org/2000/svg">
<path d="M100 0.999999C100 0.447714 100.448 0 101 0H198.029C198.848 0 199.32 0.929863 198.836 1.59051L197.395 3.56008C197.156 3.88684 197.138 4.32551 197.348 4.6712L199.695 8.51962C199.883 8.82863 199.89 9.21533 199.713 9.53072L197.301 13.8159C197.116 14.1437 197.131 14.5472 197.339 14.8603L199.647 18.3295C199.862 18.6531 199.871 19.0721 199.668 19.404L197.332 23.236C197.129 23.5679 197.138 23.9869 197.353 24.3105L199.647 27.7595C199.862 28.0831 199.871 28.5021 199.668 28.834L197.294 32.7273C197.112 33.0268 197.099 33.4002 197.262 33.7111L199.726 38.4256C199.895 38.749 199.874 39.1388 199.672 39.4427L197.353 42.9295C197.138 43.2531 197.129 43.6721 197.332 44.004L199.668 47.836C199.871 48.1679 199.862 48.5869 199.647 48.9105L197.368 52.3362C197.145 52.6717 197.145 53.1083 197.368 53.4438L199.647 56.8695C199.862 57.1931 199.871 57.6121 199.668 57.944L197.359 61.7312C197.143 62.0857 197.168 62.5368 197.423 62.8649L200.001 66.1868C200.292 66.5614 200.279 67.0886 199.971 67.4492L197.554 70.2807C197.235 70.6547 197.235 71.2053 197.554 71.5793L199.838 74.2542C200.201 74.6802 200.144 75.3217 199.711 75.6768L197.732 77.2999C197.321 77.6366 197.245 78.2353 197.559 78.6637L198.836 80.4095C199.32 81.0701 198.848 82 198.029 82H101C100.448 82 100 81.5523 100 81V0.999999Z" fill="url(#paint0_linear_3_36)"/>
<path d="M100.5 81C100.5 81.5523 100.052 82 99.5 82L2.47082 82C1.6522 82 1.18039 81.0701 1.66379 80.4095L3.10494 78.4399C3.34403 78.1132 3.36249 77.6745 3.15171 77.3288L0.805109 73.4804C0.61669 73.1714 0.60994 72.7847 0.787461 72.4693L3.1994 68.1841C3.38386 67.8563 3.36886 67.4528 3.16057 67.1397L0.852869 63.6705C0.637612 63.3469 0.629353 62.9279 0.831692 62.596L3.16831 58.764C3.37065 58.4321 3.36239 58.0131 3.14713 57.6895L0.852869 54.2405C0.637612 53.9169 0.629353 53.4979 0.831692 53.166L3.20565 49.2727C3.3883 48.9732 3.40062 48.5998 3.23811 48.2889L0.774072 43.5744C0.605044 43.251 0.625601 42.8612 0.827709 42.5573L3.14713 39.0705C3.36239 38.7469 3.37065 38.3279 3.16831 37.996L0.831692 34.164C0.629353 33.8321 0.637612 33.4131 0.85287 33.0895L3.13159 29.6638C3.35476 29.3283 3.35476 28.8917 3.13159 28.5562L0.852869 25.1305C0.637612 24.8069 0.629353 24.3879 0.831692 24.056L3.14095 20.2688C3.3571 19.9143 3.33172 19.4632 3.07716 19.1351L0.49913 15.8132C0.208451 15.4386 0.220749 14.9114 0.528577 14.5508L2.94575 11.7193C3.265 11.3453 3.265 10.7947 2.94575 10.4207L0.662245 7.74577C0.298637 7.31983 0.355675 6.67835 0.788729 6.32324L2.76823 4.70005C3.17874 4.36344 3.25467 3.76471 2.94118 3.33628L1.66379 1.59051C1.18039 0.929864 1.6522 7.15256e-07 2.47082 7.15256e-07L99.5 7.15256e-07C100.052 7.15256e-07 100.5 0.447716 100.5 1L100.5 81Z" fill="url(#paint1_linear_3_36)"/>
<defs>
<linearGradient id="paint0_linear_3_36" x1="35.5" y1="41" x2="200" y2="41" gradientUnits="userSpaceOnUse">
<stop stop-color="#97C000"/>
<stop offset="1" stop-color="#007620"/>
</linearGradient>
<linearGradient id="paint1_linear_3_36" x1="2.26977e-07" y1="41" x2="211" y2="41" gradientUnits="userSpaceOnUse">
<stop stop-color="#97C000"/>
<stop offset="1" stop-color="#017620"/>
</linearGradient>
</defs>
</svg>
